<svg xmlns="http://www.w3.org/2000/svg" width="32" height="32" viewBox="0 0 32 32">
  <path id="right-up" d="M31.111,32H11.555a.888.888,0,0,1-.889-.889V29.333a.888.888,0,0,1,.889-.889H25.93L.26,2.774a.893.893,0,0,1-.112-.137.884.884,0,0,1-.13-.312.891.891,0,0,1,.044-.508.883.883,0,0,1,.082-.158A.894.894,0,0,1,.26,1.517L1.517.26A.893.893,0,0,1,1.651.15.883.883,0,0,1,1.958.02a.891.891,0,0,1,.511.041.882.882,0,0,1,.161.082A.892.892,0,0,1,2.774.26l25.67,25.67V11.556a.888.888,0,0,1,.889-.889h1.778a.888.888,0,0,1,.889.889V31.111a.888.888,0,0,1-.889.889Z" fill="#181614"/>
</svg>
